<mxfile host="app.diagrams.net" modified="2023-07-29T12:59:59.634Z" agent="Mozilla/5.0 (Windows NT 10.0; Win64; x64) AppleWebKit/537.36 (KHTML, like Gecko) Chrome/115.0.0.0 Safari/537.36 Edg/115.0.1901.183" version="21.6.5" etag="X23_uuE0t1X7EpcabrHG" type="github">
  <diagram name="第 1 页" id="_xqbL-4A8Ex_9uuWLOnW">
    <mxGraphModel>
      <root>
        <mxCell id="0" />
        <mxCell id="1" parent="0" />
      </root>
    </mxGraphModel>
  </diagram>
</mxfile>
